<?xml version="1.0"?>
<svg xmlns="http://www.w3.org/2000/svg" xmlns:xlink="http://www.w3.org/1999/xlink" xmlns:svgjs="http://svgjs.com/svgjs" version="1.1" width="512" height="512" x="0" y="0" viewBox="0 0 512 512" style="enable-background:new 0 0 512 512" xml:space="preserve" class=""><g><g xmlns="http://www.w3.org/2000/svg"><g><path d="m276.391 452h-215.391c-8.291 0-15-6.709-15-15v-422c0-8.291 6.709-15 15-15h300c8.291 0 15 6.709 15 15v302c0 8.291-6.709 15-15 15-41.367 0-75 33.647-75 75 0 8.818 1.465 17.08 4.365 24.58 3.832 9.893-3.506 20.42-13.974 20.42z" fill="#e6f7ff" data-original="#e6f7ff" style="" class=""/></g><path d="m211 452h65.391c10.468 0 17.807-10.527 13.975-20.42-2.9-7.5-4.365-15.762-4.365-24.58 0-41.353 33.633-75 75-75 8.291 0 15-6.709 15-15v-302c0-8.291-6.709-15-15-15h-150.001z" fill="#cceeff" data-original="#cceeff" style="" class=""/><g id="Checklist_1_"><g><path d="m361 512c-58.975 0-105-48.09-105-105 0-57.891 47.109-105 105-105s105 47.109 105 105-47.109 105-105 105z" fill="#97de3d" data-original="#97de3d" style="" class=""/></g><g><circle cx="121" cy="107" fill="#47568c" r="15" data-original="#47568c" style=""/></g><g><g><circle cx="121" cy="167" fill="#47568c" r="15" data-original="#47568c" style=""/></g></g><g><g><circle cx="121" cy="227" fill="#47568c" r="15" data-original="#47568c" style=""/></g></g><g><g><circle cx="121" cy="287" fill="#47568c" r="15" data-original="#47568c" style=""/></g></g><g><path d="m301 122h-120c-8.291 0-15-6.709-15-15s6.709-15 15-15h120c8.291 0 15 6.709 15 15s-6.709 15-15 15z" fill="#99eeff" data-original="#99eeff" style=""/></g><g><path d="m301 182h-120c-8.291 0-15-6.709-15-15s6.709-15 15-15h120c8.291 0 15 6.709 15 15s-6.709 15-15 15z" fill="#99eeff" data-original="#99eeff" style=""/></g><g><path d="m301 242h-120c-8.291 0-15-6.709-15-15s6.709-15 15-15h120c8.291 0 15 6.709 15 15s-6.709 15-15 15z" fill="#99eeff" data-original="#99eeff" style=""/></g><g><path d="m241 302h-60c-8.291 0-15-6.709-15-15s6.709-15 15-15h60c8.291 0 15 6.709 15 15s-6.709 15-15 15z" fill="#99eeff" data-original="#99eeff" style=""/></g></g><g fill="#80bfff"><path d="m211 302h30c8.291 0 15-6.709 15-15s-6.709-15-15-15h-30z" fill="#80bfff" data-original="#80bfff" style=""/><path d="m211 242h90c8.291 0 15-6.709 15-15s-6.709-15-15-15h-90z" fill="#80bfff" data-original="#80bfff" style=""/><path d="m211 182h90c8.291 0 15-6.709 15-15s-6.709-15-15-15h-90z" fill="#80bfff" data-original="#80bfff" style=""/><path d="m211 122h90c8.291 0 15-6.709 15-15s-6.709-15-15-15h-90z" fill="#80bfff" data-original="#80bfff" style=""/></g><path d="m466 407c0-57.891-47.109-105-105-105v210c57.891 0 105-47.109 105-105z" fill="#59c36a" data-original="#59c36a" style=""/><g><path d="m335.395 440.105-22.5-22.5c-5.859-5.859-5.859-15.352 0-21.211s15.352-5.859 21.211 0l11.894 11.895 34.395-34.395c5.859-5.859 15.352-5.859 21.211 0s5.859 15.352 0 21.211l-45 45c-5.86 5.86-15.352 5.86-21.211 0z" fill="#f0f7ff" data-original="#f0f7ff" style=""/></g><path d="m380.395 373.895-19.395 19.394v42.422l40.605-40.605c5.859-5.859 5.859-15.352 0-21.211s-15.351-5.86-21.21 0z" fill="#dfe7f4" data-original="#dfe7f4" style=""/></g></g></svg>
