<?xml version="1.0"?>
<svg xmlns="http://www.w3.org/2000/svg" xmlns:xlink="http://www.w3.org/1999/xlink" xmlns:svgjs="http://svgjs.com/svgjs" version="1.1" width="512" height="512" x="0" y="0" viewBox="0 0 512.001 512.001" style="enable-background:new 0 0 512 512" xml:space="preserve" class=""><g transform="matrix(0.8,0,0,0.8,51.20010375976557,51.20019683837893)">
<path xmlns="http://www.w3.org/2000/svg" style="" d="M504.488,72.918H219.943c-2.598,0-5.012,1.342-6.382,3.55c-1.37,2.207-1.502,4.966-0.351,7.294  l17.324,35.001c1.267,2.56,3.876,4.18,6.733,4.18h222.511v331.029c0,4.148,3.362,7.512,7.512,7.512h37.199  c4.15,0,7.512-3.363,7.512-7.512V80.429C512,76.281,508.638,72.918,504.488,72.918z" fill="#098edd" data-original="#ff9827" class=""/>
<path xmlns="http://www.w3.org/2000/svg" style="" d="M504.488,72.918h-20.03v388.565h20.03c4.15,0,7.512-3.363,7.512-7.512V80.429  C512,76.281,508.638,72.918,504.488,72.918z" fill="#e3d8d8" data-original="#e07210" class=""/>
<path xmlns="http://www.w3.org/2000/svg" style="" d="M467.29,107.919H241.93l-26.342-53.221c-1.267-2.56-3.876-4.18-6.733-4.18H7.512  C3.362,50.519,0,53.882,0,58.03v395.94c0,4.148,3.362,7.512,7.512,7.512H467.29c4.15,0,7.512-3.363,7.512-7.512v-338.54  C474.802,111.282,471.439,107.919,467.29,107.919z" fill="#098edd" data-original="#f7cb4f" class=""/>
<g xmlns="http://www.w3.org/2000/svg">
	<path style="" d="M214.24,107.919h27.69l-26.342-53.221c-1.267-2.56-3.876-4.18-6.733-4.18h-24.922L214.24,107.919z" fill="#e3d8d8" data-original="#f4b008" class=""/>
	<path style="" d="M467.29,107.919h-20.031v353.563h20.031c4.15,0,7.512-3.363,7.512-7.512v-338.54   C474.802,111.282,471.439,107.919,467.29,107.919z" fill="#e3d8d8" data-original="#f4b008" class=""/>
</g>
<path xmlns="http://www.w3.org/2000/svg" style="" d="M241.984,168.301c-63.916,0-115.916,51.999-115.916,115.916s52,115.916,115.916,115.916  S357.9,348.134,357.9,284.217C357.9,220.301,305.9,168.301,241.984,168.301z" fill="#efe7e4" data-original="#efe7e4" class=""/>
<path xmlns="http://www.w3.org/2000/svg" style="" d="M241.984,168.301c-4.667,0-9.268,0.285-13.792,0.824c57.438,6.841,102.125,55.842,102.125,115.092  S285.63,392.468,228.192,399.31c4.524,0.539,9.125,0.824,13.792,0.824c63.916,0,115.916-51.999,115.916-115.916  S305.9,168.301,241.984,168.301z" fill="#d8d1d0" data-original="#d8d1d0" class=""/>
<path xmlns="http://www.w3.org/2000/svg" style="" d="M319.77,364.229c-4.933-15.829-15.385-30.24-29.434-40.579  c-14.086-10.366-31.221-16.203-48.251-16.437c-0.068-0.001-0.137-0.001-0.205,0c-17.03,0.233-34.164,6.07-48.25,16.437  c-14.047,10.338-24.5,24.75-29.434,40.579c-0.892,2.861,0.003,5.978,2.276,7.931c20.99,18.038,47.807,27.973,75.511,27.973  c27.703,0,54.521-9.934,75.511-27.973C319.767,370.208,320.662,367.091,319.77,364.229z" fill="#2d9bc5" data-original="#68b9d8" class=""/>
<path xmlns="http://www.w3.org/2000/svg" style="" d="M319.77,364.229c-4.933-15.829-15.385-30.24-29.434-40.579  c-14.086-10.366-31.221-16.203-48.251-16.437c-0.068-0.001-0.137-0.001-0.205,0c-3.075,0.042-6.153,0.273-9.216,0.674  c8.51,3.808,16.664,8.513,24.239,14.087c21.329,15.697,37.272,37.479,45.044,61.437c5.456-3.297,10.661-7.051,15.547-11.251  C319.767,370.208,320.662,367.091,319.77,364.229z" fill="#3695b2" data-original="#3695b2" class=""/>
<path xmlns="http://www.w3.org/2000/svg" style="" d="M267.544,376.382l-9.793-42.516c-0.785-3.409-3.821-5.825-7.32-5.825h-16.892  c-3.498,0-6.534,2.416-7.32,5.825l-9.794,42.516c-0.607,2.638,0.251,5.399,2.249,7.227l15.869,14.524  c1.343,1.229,3.088,1.929,4.908,1.968c0.844,0.018,1.687,0.032,2.535,0.032s1.691-0.014,2.535-0.032  c1.82-0.039,3.565-0.739,4.908-1.968l15.869-14.524C267.292,381.782,268.151,379.02,267.544,376.382z" fill="#f2464f" data-original="#f2464f" class=""/>
<path xmlns="http://www.w3.org/2000/svg" style="" d="M225.701,336.743h32.565l12.315-23.919c-9.149-3.54-18.838-5.478-28.495-5.611  c-0.068-0.001-0.137-0.001-0.205,0c-9.695,0.133-19.422,2.087-28.603,5.655L225.701,336.743z" fill="#d3333c" data-original="#d3333c" class=""/>
<path xmlns="http://www.w3.org/2000/svg" style="" d="M256.462,308.73l-13.119,27.815l0.046,0.197h14.876l12.315-23.919  C265.986,311.046,261.256,309.674,256.462,308.73z" fill="#af273b" data-original="#af273b" class=""/>
<path xmlns="http://www.w3.org/2000/svg" style="" d="M241.984,206.682c-23.532,0-42.677,19.145-42.677,42.677v30.26c0,23.533,19.145,42.677,42.677,42.677  c23.532,0,42.677-19.145,42.677-42.677v-30.26C284.66,225.827,265.515,206.682,241.984,206.682z" fill="#ffc89f" data-original="#ffc89f" class=""/>
<path xmlns="http://www.w3.org/2000/svg" style="" d="M241.984,206.682c-4.829,0-9.466,0.817-13.798,2.302c16.779,5.75,28.879,21.671,28.879,40.375v30.26  c0,18.704-12.1,34.625-28.879,40.375c4.332,1.484,8.969,2.302,13.798,2.302c23.532,0,42.677-19.145,42.677-42.677v-30.26  C284.66,225.827,265.515,206.682,241.984,206.682z" fill="#f7b081" data-original="#f7b081" class=""/>
<path xmlns="http://www.w3.org/2000/svg" d="M284.66,264.485V249.36c0-23.533-19.145-42.677-42.677-42.677s-42.677,19.145-42.677,42.677v15.131h7.512  c30.736,0,41.934-20.754,41.934-20.754s7.826,20.653,28.397,20.749H284.66z" fill="#000000" data-original="#000000" style="" class=""/>
<path xmlns="http://www.w3.org/2000/svg" style="" d="M267.544,376.382l-9.176-39.836l-0.102,0.197h-14.876l9.13,39.638  c0.608,2.638-0.251,5.399-2.249,7.227l-15.8,14.461l0.068,0.063c1.343,1.229,3.088,1.929,4.908,1.968  c0.844,0.018,1.687,0.032,2.535,0.032s1.691-0.014,2.535-0.032c1.82-0.039,3.565-0.739,4.908-1.968l15.869-14.524  C267.292,381.782,268.151,379.02,267.544,376.382z" fill="#d3333c" data-original="#d3333c" class=""/>
<g xmlns="http://www.w3.org/2000/svg">
</g>
<g xmlns="http://www.w3.org/2000/svg">
</g>
<g xmlns="http://www.w3.org/2000/svg">
</g>
<g xmlns="http://www.w3.org/2000/svg">
</g>
<g xmlns="http://www.w3.org/2000/svg">
</g>
<g xmlns="http://www.w3.org/2000/svg">
</g>
<g xmlns="http://www.w3.org/2000/svg">
</g>
<g xmlns="http://www.w3.org/2000/svg">
</g>
<g xmlns="http://www.w3.org/2000/svg">
</g>
<g xmlns="http://www.w3.org/2000/svg">
</g>
<g xmlns="http://www.w3.org/2000/svg">
</g>
<g xmlns="http://www.w3.org/2000/svg">
</g>
<g xmlns="http://www.w3.org/2000/svg">
</g>
<g xmlns="http://www.w3.org/2000/svg">
</g>
<g xmlns="http://www.w3.org/2000/svg">
</g>
</g></svg>
